Coordinates
version=1
nRows=30
nColumns=38
inDegrees=no

Units are S.I. units (second, meters, Newtons, ...)
If the header above contains a line with 'inDegrees', this indicates whether rotational values are in degrees (yes) or radians (no).

endheader
time	pelvis_tilt	pelvis_list	pelvis_rotation	pelvis_tx	pelvis_ty	pelvis_tz	hip_flexion_r	hip_adduction_r	hip_rotation_r	knee_angle_r	ankle_angle_r	subtalar_angle_r	mtp_angle_r	hip_flexion_l	hip_adduction_l	hip_rotation_l	knee_angle_l	ankle_angle_l	subtalar_angle_l	mtp_angle_l	lumbar_extension	lumbar_bending	lumbar_rotation	arm_flex_r	arm_add_r	arm_rot_r	elbow_flex_r	pro_sup_r	wrist_flex_r	wrist_dev_r	arm_flex_l	arm_add_l	arm_rot_l	elbow_flex_l	pro_sup_l	wrist_flex_l	wrist_dev_l
0.61	-1.94918	1.40203	-2.78775	0.71313	0.183981	0.941746	0.168309	-0.353752	-0.0963799	1.27624	-0.273097	0	0	0.290532	0.13652	-0.341312	0.476975	0.107187	0	0	-0.0775442	-0.176486	-0.00207201	-0.121537	-0.150271	0.128677	0.534548	1.08272	0	0	-0.25891	-0.264839	0.385279	0.66064	0.643901	0	0
0.62	-1.96326	1.38633	-2.76896	0.711564	0.193629	0.94506	0.185893	-0.37107	-0.0869112	1.30179	-0.249652	0	0	0.230225	0.183817	-0.263941	0.388877	0.0847849	0	0	-0.0880521	-0.192432	-0.0101024	-0.122518	-0.145182	0.123094	0.529649	1.09299	0	0	-0.248095	-0.268917	0.385749	0.656885	0.64027	0	0
0.63	-1.97318	1.38687	-2.75157	0.71008	0.203305	0.947037	0.20742	-0.37104	-0.0848514	1.32337	-0.222722	0	0	0.208717	0.187986	-0.25297	0.37538	0.0885648	0	0	-0.0909518	-0.191396	-0.0191258	-0.128057	-0.144472	0.120647	0.532329	1.10043	0	0	-0.239909	-0.27043	0.382888	0.656029	0.642266	0	0
0.64	-1.97836	1.40255	-2.73646	0.70866	0.212636	0.947707	0.2347	-0.352642	-0.0861025	1.34165	-0.197661	0	0	0.22896	0.152656	-0.309348	0.437826	0.1196	0	0	-0.0868035	-0.174899	-0.0288441	-0.136696	-0.147431	0.119993	0.541588	1.10503	0	0	-0.232521	-0.269651	0.377855	0.657593	0.646142	0	0
0.65	-1.99225	1.39171	-2.71779	0.707163	0.221925	0.950893	0.251056	-0.362783	-0.0795608	1.35084	-0.179454	0	0	0.168022	0.191342	-0.231039	0.347029	0.0942693	0	0	-0.0966404	-0.184894	-0.0371946	-0.13905	-0.144414	0.115257	0.54209	1.11663	0	0	-0.222638	-0.266506	0.353025	0.652417	0.687674	0	0
0.66	-1.99464	1.40697	-2.70413	0.705677	0.230892	0.951457	0.277464	-0.345079	-0.0834371	1.35924	-0.162413	0	0	0.189973	0.158066	-0.286791	0.408889	0.12448	0	0	-0.0925034	-0.169206	-0.048165	-0.147096	-0.147061	0.114456	0.551786	1.11731	0	0	-0.215101	-0.269298	0.358711	0.661177	0.664237	0	0
0.67	-2.01213	1.39659	-2.68157	0.704172	0.240149	0.954461	0.290856	-0.354679	-0.0797019	1.3588	-0.149517	0	0	0.126414	0.193906	-0.207116	0.315771	0.0962718	0	0	-0.103099	-0.178099	-0.0569496	-0.150194	-0.146219	0.118191	0.555643	1.10793	0	0	-0.206539	-0.266313	0.332348	0.660584	0.709609	0	0
0.68	-2.02321	1.39903	-2.66198	0.702636	0.249189	0.95606	0.30897	-0.351122	-0.0817764	1.35622	-0.136725	0	0	0.105559	0.194504	-0.195864	0.300067	0.0970292	0	0	-0.106638	-0.174369	-0.0668043	-0.15554	-0.147425	0.120516	0.561809	1.10029	0	0	-0.198329	-0.266822	0.324299	0.667039	0.717195	0	0
0.69	-2.0361	1.40156	-2.64053	0.701132	0.258088	0.957501	0.325994	-0.347611	-0.0850896	1.34976	-0.124751	0	0	0.0849349	0.194293	-0.185712	0.284783	0.0978036	0	0	-0.110644	-0.170295	-0.0766124	-0.160156	-0.148737	0.122835	0.567346	1.09214	0	0	-0.189689	-0.267607	0.317331	0.674453	0.724291	0	0
0.7	-2.05443	1.40317	-2.61367	0.69964	0.266991	0.958904	0.340202	-0.344809	-0.0895542	1.33902	-0.113205	0	0	0.0620722	0.194421	-0.174151	0.267647	0.0973162	0	0	-0.1162	-0.16643	-0.0858244	-0.164045	-0.146038	0.104964	0.568952	1.12508	0	0	-0.180355	-0.267625	0.30765	0.681349	0.742058	0	0
0.71	-2.07639	1.40437	-2.58284	0.69814	0.275903	0.960182	0.352092	-0.342536	-0.095643	1.32457	-0.10221	0	0	0.0386127	0.194056	-0.162433	0.251128	0.0973019	0	0	-0.12224	-0.162507	-0.0956328	-0.167615	-0.146128	0.101547	0.57146	1.12684	0	0	-0.171093	-0.268686	0.302079	0.689479	0.752899	0	0
0.72	-2.10029	1.40524	-2.55009	0.696652	0.284739	0.961307	0.36247	-0.340951	-0.103223	1.30703	-0.0918547	0	0	0.0146853	0.193422	-0.149507	0.234116	0.0972383	0	0	-0.128821	-0.15842	-0.105496	-0.17023	-0.146045	0.0981762	0.572536	1.12793	0	0	-0.161402	-0.269431	0.295939	0.697573	0.764352	0	0
0.73	-2.12161	1.40641	-2.51991	0.695206	0.293475	0.962169	0.372609	-0.339755	-0.112011	1.2869	-0.080473	0	0	-0.00676847	0.19186	-0.138042	0.220356	0.0988048	0	0	-0.134722	-0.154196	-0.115361	-0.171803	-0.145865	0.0960437	0.57189	1.12842	0	0	-0.15119	-0.270267	0.291284	0.705189	0.772756	0	0
0.74	-2.1436	1.40719	-2.48969	0.693842	0.302179	0.962878	0.381485	-0.3389	-0.121279	1.26376	-0.0676967	0	0	-0.0277332	0.190098	-0.126182	0.207743	0.10081	0	0	-0.140796	-0.150162	-0.124445	-0.172732	-0.145518	0.0938975	0.569634	1.12841	0	0	-0.140515	-0.271114	0.287609	0.712534	0.780573	0	0
0.75	-2.16181	1.4079	-2.46422	0.692595	0.310846	0.963377	0.390117	-0.338373	-0.13066	1.23783	-0.0539043	0	0	-0.0469014	0.188235	-0.115792	0.196938	0.103689	0	0	-0.146091	-0.146626	-0.132419	-0.173099	-0.145091	0.0923272	0.565706	1.12713	0	0	-0.12944	-0.272154	0.285942	0.718988	0.786958	0	0
0.76	-2.17759	1.40851	-2.44187	0.691444	0.319485	0.963692	0.398081	-0.338109	-0.140594	1.20928	-0.0398601	0	0	-0.0646117	0.186221	-0.106551	0.187907	0.107353	0	0	-0.150894	-0.14342	-0.139867	-0.172683	-0.144666	0.0920195	0.56072	1.12403	0	0	-0.117994	-0.273241	0.285926	0.724291	0.792363	0	0
0.77	-2.18837	1.40925	-2.42499	0.690365	0.328032	0.963777	0.406184	-0.338207	-0.150702	1.1786	-0.0263763	0	0	-0.0798483	0.184241	-0.0994002	0.1815	0.11245	0	0	-0.15492	-0.140589	-0.146714	-0.172322	-0.144378	0.0927308	0.556339	1.1193	0	0	-0.105729	-0.274158	0.286837	0.7285	0.796095	0	0
0.78	-2.20424	1.40913	-2.40364	0.689388	0.336667	0.963874	0.41135	-0.338553	-0.162103	1.14487	-0.0136723	0	0	-0.0980877	0.182596	-0.0885764	0.171808	0.11557	0	0	-0.160296	-0.13777	-0.152547	-0.170381	-0.140229	0.0753862	0.546284	1.14905	0	0	-0.0925148	-0.273329	0.283379	0.729646	0.821117	0	0
0.79	-2.21468	1.40929	-2.38909	0.688603	0.345328	0.963733	0.417075	-0.338601	-0.172919	1.10933	-0.00178881	0	0	-0.113812	0.180844	-0.0809105	0.165112	0.120021	0	0	-0.164312	-0.135569	-0.157189	-0.169125	-0.139377	0.0748651	0.539698	1.14692	0	0	-0.0796133	-0.273936	0.285925	0.732129	0.828016	0	0
0.8	-2.22243	1.40965	-2.37789	0.687937	0.354013	0.963438	0.422291	-0.338483	-0.184371	1.07185	0.00933078	0	0	-0.128476	0.179079	-0.0742017	0.159355	0.124836	0	0	-0.167685	-0.133558	-0.161037	-0.167778	-0.138511	0.0750095	0.532786	1.14412	0	0	-0.066345	-0.274599	0.289982	0.733744	0.834188	0	0
0.81	-2.22957	1.41005	-2.3678	0.687344	0.362768	0.96301	0.426537	-0.338381	-0.197097	1.03264	0.0195445	0	0	-0.142728	0.177236	-0.0681116	0.154252	0.130101	0	0	-0.170658	-0.131563	-0.164043	-0.166816	-0.137681	0.0753061	0.526197	1.14089	0	0	-0.052818	-0.275056	0.295144	0.734267	0.839638	0	0
0.82	-2.23673	1.41049	-2.35837	0.686852	0.371662	0.962442	0.429873	-0.338378	-0.211449	0.992192	0.0284144	0	0	-0.156693	0.175216	-0.0627486	0.149904	0.135953	0	0	-0.173128	-0.129542	-0.16617	-0.166364	-0.137067	0.075732	0.520413	1.1371	0	0	-0.0395229	-0.27516	0.301048	0.733731	0.844845	0	0
0.83	-2.23737	1.41144	-2.35631	0.686523	0.380568	0.961633	0.434218	-0.338094	-0.225765	0.951105	0.035754	0	0	-0.168087	0.173368	-0.0597553	0.147907	0.143074	0	0	-0.174404	-0.128028	-0.167164	-0.165831	-0.134963	0.0681183	0.513662	1.15301	0	0	-0.0264754	-0.276341	0.311359	0.735221	0.831711	0	0
0.84	-2.24082	1.41257	-2.35186	0.686281	0.389486	0.960756	0.437543	-0.336968	-0.241208	0.909116	0.0422377	0	0	-0.179674	0.171044	-0.0567095	0.145717	0.150069	0	0	-0.175877	-0.125943	-0.167544	-0.165334	-0.1341	0.0675743	0.50796	1.15196	0	0	-0.0126952	-0.275553	0.317544	0.732842	0.837966	0	0
0.85	-2.25357	1.41386	-2.33862	0.686139	0.398499	0.959902	0.438403	-0.334134	-0.258366	0.865537	0.0477245	0	0	-0.192471	0.167387	-0.0539497	0.143182	0.157124	0	0	-0.178099	-0.122501	-0.167609	-0.165175	-0.137191	0.0875586	0.505714	1.11017	0	0	0.00123299	-0.272979	0.319715	0.727218	0.859789	0	0
0.86	-2.25412	1.41549	-2.33863	0.686191	0.407672	0.958755	0.441796	-0.33185	-0.274278	0.823526	0.0544654	0	0	-0.202175	0.164708	-0.0540192	0.143431	0.165404	0	0	-0.178271	-0.120536	-0.166551	-0.16454	-0.136219	0.0856479	0.499626	1.11769	0	0	0.0136815	-0.27165	0.324895	0.725051	0.861258	0	0
0.87	-2.25775	1.42292	-2.33208	0.686363	0.416532	0.957011	0.44736	-0.32469	-0.293667	0.781399	0.0617323	0	0	-0.173158	0.147872	-0.113338	0.21148	0.206388	0	0	-0.175185	-0.113706	-0.168334	-0.16371	-0.135242	0.0850481	0.49409	1.122	0	0	0.0260014	-0.270587	0.330631	0.722711	0.86317	0	0
0.88	-2.25853	1.42793	-2.33173	0.686658	0.425699	0.955477	0.45204	-0.31833	-0.310403	0.739419	0.0694259	0	0	-0.174115	0.140416	-0.124311	0.224612	0.222933	0	0	-0.172878	-0.109132	-0.167323	-0.162741	-0.134421	0.084696	0.487943	1.12536	0	0	0.0377156	-0.268639	0.335902	0.718679	0.865836	0	0
0.89	-2.26528	1.43076	-2.32601	0.686921	0.435059	0.954105	0.453813	-0.312651	-0.326972	0.697719	0.0785287	0	0	-0.182737	0.135714	-0.126288	0.227005	0.233035	0	0	-0.172794	-0.105304	-0.16605	-0.161691	-0.133983	0.0847591	0.482522	1.12778	0	0	0.0489443	-0.266261	0.340394	0.71445	0.869256	0	0
0.9	-2.28004	1.43361	-2.31287	0.68732	0.444561	0.952777	0.453665	-0.304611	-0.34186	0.654967	0.0879308	0	0	-0.193253	0.130392	-0.127617	0.227266	0.242187	0	0	-0.173381	-0.100599	-0.164349	-0.15994	-0.133731	0.0855864	0.476269	1.13095	0	0	0.0597275	-0.263239	0.343577	0.709428	0.87469	0	0
